<?xml version="1.0" encoding="UTF-8" standalone="no"?>
<!-- Generator: Adobe Illustrator 16.0.1, SVG Export Plug-In . SVG Version: 6.00 Build 0)  -->

<svg
   xmlns:dc="http://purl.org/dc/elements/1.1/"
   xmlns:cc="http://creativecommons.org/ns#"
   xmlns:rdf="http://www.w3.org/1999/02/22-rdf-syntax-ns#"
   xmlns:svg="http://www.w3.org/2000/svg"
   xmlns="http://www.w3.org/2000/svg"
   xmlns:sodipodi="http://sodipodi.sourceforge.net/DTD/sodipodi-0.dtd"
   xmlns:inkscape="http://www.inkscape.org/namespaces/inkscape"
   version="1.1"
   id="Layer_1"
   x="0px"
   y="0px"
   width="512px"
   height="512px"
   viewBox="0 0 512 512"
   enable-background="new 0 0 512 512"
   xml:space="preserve"
   inkscape:version="0.91 r13725"
   sodipodi:docname="menu-icon2.svg"><metadata
     id="metadata3402"><rdf:RDF><cc:Work
         rdf:about=""><dc:format>image/svg+xml</dc:format><dc:type
           rdf:resource="http://purl.org/dc/dcmitype/StillImage" /><dc:title></dc:title></cc:Work></rdf:RDF></metadata><defs
     id="defs3400" /><sodipodi:namedview
     pagecolor="#ffffff"
     bordercolor="#666666"
     borderopacity="1"
     objecttolerance="10"
     gridtolerance="10"
     guidetolerance="10"
     inkscape:pageopacity="0"
     inkscape:pageshadow="2"
     inkscape:window-width="1366"
     inkscape:window-height="715"
     id="namedview3398"
     showgrid="false"
     inkscape:zoom="1.0566406"
     inkscape:cx="118.29945"
     inkscape:cy="256"
     inkscape:window-x="0"
     inkscape:window-y="0"
     inkscape:window-maximized="1"
     inkscape:current-layer="Layer_1" /><path
     id="menu-5-icon"
     fill="#F58D81"
     d="M256,50C142.229,50,50,142.229,50,256c0,113.771,92.229,206,206,206  c113.771,0,206-92.229,206-206C462,142.229,369.771,50,256,50z M371.3,342.625H144.7v-35.75h226.6V342.625z M371.3,273.875H144.7  v-35.75h226.6V273.875z M371.3,205.125H144.7v-35.75h226.6V205.125z" /><path
     style="fill:#f5f5f5;stroke:none;stroke-width:1px;stroke-linecap:butt;stroke-linejoin:miter;stroke-opacity:1;fill-opacity:1"
     d="m 145.36636,187.5756 0,-17.50832 112.62107,0 112.62107,0 0,17.50832 0,17.50832 -112.62107,0 -112.62107,0 0,-17.50832 z"
     id="path4204"
     inkscape:connector-curvature="0" /><path
     style="fill:#f5f5f5;fill-opacity:1"
     d="m 145.36636,255.71608 0,-17.50832 112.62107,0 112.62107,0 0,17.50832 0,17.50832 -112.62107,0 -112.62107,0 0,-17.50832 z"
     id="path4225"
     inkscape:connector-curvature="0" /><path
     style="fill:#f5f5f5;fill-opacity:1"
     d="m 145.36636,324.80296 0,-17.50832 112.62107,0 112.62107,0 0,17.50832 0,17.50832 -112.62107,0 -112.62107,0 0,-17.50832 z"
     id="path4227"
     inkscape:connector-curvature="0" /></svg>